<svg id="Layer_1" data-name="Layer 1" xmlns="http://www.w3.org/2000/svg" viewBox="0 0 441.2 441.2"><defs><style>.cls-1{fill:#012765;}.cls-2{fill:none;stroke:#b30c33;stroke-miterlimit:10;stroke-width:2px;}.cls-3{fill:#fff;}.cls-4{fill:#b30c33;}</style></defs><g id="Logo_blob" data-name="Logo blob"><rect class="cls-1" width="441.2" height="441.2"/><g id="Group_167" data-name="Group 167"><g id="Group_165" data-name="Group 165"><path id="Path_965" data-name="Path 965" class="cls-2" d="M158.86,198.89s44.51-16.91,44.52-80.82"/><path id="Path_966" data-name="Path 966" class="cls-2" d="M264.88,198.89S220.36,182,220.36,118.07"/><path id="Path_967" data-name="Path 967" class="cls-3" d="M240.65,279.59v5.59H182.23v-5.59a43,43,0,0,0,10.05-1.19,13,13,0,0,0,5.79-3,10,10,0,0,0,2.65-5.23,43,43,0,0,0,.62-7.68V217.38h20.5v45.06a42.83,42.83,0,0,0,.62,7.67,10.18,10.18,0,0,0,2.6,5.23,12.2,12.2,0,0,0,5.71,3.06A42.19,42.19,0,0,0,240.65,279.59Z"/><path id="Path_968" data-name="Path 968" class="cls-4" d="M202.17,121.87v77.57h19.39V121.87Zm16.71,74.55h-14V181.79a1,1,0,0,1,1-1h12.12a1,1,0,0,1,.95,1h0Zm0-21.11a1,1,0,0,1-.95.95H205.81a1,1,0,0,1-.95-.95h0V163.19a.94.94,0,0,1,.95-.95h12.12a1,1,0,0,1,.95.95h0Zm0-17.09a1,1,0,0,1-.95.95H205.81a1,1,0,0,1-.95-.95h0V146.1a1,1,0,0,1,.95-1h12.12a1,1,0,0,1,.95,1h0Zm0-17.1a1,1,0,0,1-1,1H205.81a1,1,0,0,1-1-1V129a1,1,0,0,1,1-1h12.11a1,1,0,0,1,1,.95h0Z"/><path id="Path_969" data-name="Path 969" class="cls-3" d="M267.86,227.08h-6a41.34,41.34,0,0,0-2-11.35,17.4,17.4,0,0,0-4.54-7.25,15.47,15.47,0,0,0-7.09-3.77,40.73,40.73,0,0,0-9.77-1c-3.62,0-6.54.06-8.72.19a25.84,25.84,0,0,0-5,.71,4,4,0,0,0-2.28,1.33,3.61,3.61,0,0,0-.56,2.07v28H201.33V208a4,4,0,0,0-.47-2.07,3.44,3.44,0,0,0-2-1.33,19.73,19.73,0,0,0-4.38-.71c-1.91-.13-4.41-.19-7.47-.19a91,91,0,0,0-9.62.48,17.69,17.69,0,0,0-8.1,2.79,16.24,16.24,0,0,0-5.63,7c-1.46,3.13-2.21,7.51-2.31,13.17h-5.45l1.41-30.65H266.44Z"/></g><g id="Group_166" data-name="Group 166"><path id="Path_970" data-name="Path 970" class="cls-3" d="M121.19,162.14h7.63l-3.11,40.43h-6.23q-3.27-14.7-12.69-23.17A32.94,32.94,0,0,0,84,170.93a34.72,34.72,0,0,0-16.34,3.75,34,34,0,0,0-12.07,10.71,51.07,51.07,0,0,0-7.47,16.94,90.27,90.27,0,0,0-2.57,22.45q0,24.76,9.89,38.11t29.19,13.34q15.57,0,25.77-8.63t14.56-25.72h6.84v43.3h-7.32l-2.18-12.62q-17.13,14.22-41.57,14.22A72.81,72.81,0,0,1,55,282.47a55.5,55.5,0,0,1-19.61-12.23A53.83,53.83,0,0,1,22.87,251a68.81,68.81,0,0,1-4.43-25.24,72.57,72.57,0,0,1,4.67-26.53A60,60,0,0,1,36.27,178.6a58.41,58.41,0,0,1,20.24-13.35,69.55,69.55,0,0,1,26.07-4.72,56.63,56.63,0,0,1,17.76,2.72,82.86,82.86,0,0,1,17.9,8.79Z"/></g><path id="Path_971" data-name="Path 971" class="cls-3" d="M292,286.77v-6.39a45.83,45.83,0,0,0,8.33-.88,9.24,9.24,0,0,0,5-2.72,10.85,10.85,0,0,0,2.41-5.43,53.31,53.31,0,0,0,.62-9.19V188.34a69.7,69.7,0,0,0-.46-9,11.12,11.12,0,0,0-2-5.43,7.7,7.7,0,0,0-4.28-2.72,40.31,40.31,0,0,0-7.08-1v-6.39H353.6a76.84,76.84,0,0,1,27.56,4.79A66.87,66.87,0,0,1,403,181.79a60,60,0,0,1,14.32,20.13,62.2,62.2,0,0,1,5.14,25.41,59,59,0,0,1-4.82,24,54.94,54.94,0,0,1-13.47,18.77,61.93,61.93,0,0,1-20.71,12.22,77.14,77.14,0,0,1-26.54,4.4Zm41.88-113.29a2.38,2.38,0,0,0-2.66,2.05,2.51,2.51,0,0,0,0,.67v82.61q0,9.27,5.6,13.74T354.07,277q20.4,0,31.37-12.62t11-36.75a81.29,81.29,0,0,0-3-22.85,48.48,48.48,0,0,0-8.56-17,37.39,37.39,0,0,0-13.63-10.63,42.81,42.81,0,0,0-18-3.68Z"/></g></g></svg>